<svg id="Layer_1" data-name="Layer 1" xmlns="http://www.w3.org/2000/svg" viewBox="0 0 30 30"><defs><style>.cls-1{fill:none;stroke:#2b7840;stroke-miterlimit:10;stroke-width:0.5px;}</style></defs><title>ico</title><polyline class="cls-1" points="20.75 22.61 20.75 26.33 2.97 26.33 2.97 3.66 20.75 3.66 20.75 7.31"/><line class="cls-1" x1="5.41" y1="8.5" x2="11.19" y2="8.5"/><line class="cls-1" x1="5.41" y1="10.95" x2="11.19" y2="10.95"/><line class="cls-1" x1="5.41" y1="13.48" x2="11.19" y2="13.48"/><path class="cls-1" d="M23.61,12.31c.11-.59.54-1.11.54-1.76A3.14,3.14,0,1,0,18.22,12s1.64,4.59-4.07,5.26c0,0-2,1-1.18,3.7H28.52s.89-3.18-1.11-3.92C27.41,17,22.77,16.79,23.61,12.31Z"/><polyline class="cls-1" points="13.78 20.94 13.78 22.5 27.71 22.5 27.71 20.94"/></svg>