<svg width="16" height="16" viewBox="0 0 16 16" fill="none" xmlns="http://www.w3.org/2000/svg">
<g clip-path="url(#clip0_139_101)">
<path d="M0.00195312 7.99552C0.00283935 6.4133 0.472881 4.86687 1.35264 3.55178C2.2324 2.2367 3.48237 1.21202 4.94448 0.607315C6.40659 0.00261398 8.01517 -0.154949 9.56683 0.15455C11.1185 0.464049 12.5435 1.22671 13.6617 2.34609C14.78 3.46547 15.5411 4.8913 15.849 6.44328C16.1569 7.99526 15.9977 9.60368 15.3915 11.0652C14.7852 12.5266 13.7593 13.7755 12.4433 14.6539C11.1273 15.5323 9.58034 16.0008 7.99811 16C5.87804 15.9932 3.84685 15.1475 2.34851 13.6476C0.850158 12.1477 0.00650931 10.1156 0.00195313 7.99552M8.38083 4.83136V4.4032C8.38083 3.58208 8.38083 2.76096 8.38083 1.93984C8.38617 1.88417 8.37899 1.82801 8.35981 1.77547C8.34064 1.72293 8.30995 1.67535 8.27001 1.6362C8.23007 1.59705 8.18187 1.56734 8.12896 1.54922C8.07604 1.53111 8.01975 1.52506 7.96419 1.53152C7.74851 1.55008 7.62435 1.71264 7.62435 1.98272C7.62435 3.95008 7.62435 5.91723 7.62435 7.88416C7.62085 7.97155 7.63618 8.05867 7.66931 8.13961C7.70244 8.22055 7.75259 8.29343 7.81635 8.35328C8.90435 9.43446 9.98958 10.5184 11.072 11.6051C11.2999 11.833 11.5232 11.8656 11.696 11.6973C11.8688 11.529 11.84 11.2966 11.6045 11.0611C10.5724 10.029 9.53966 8.99734 8.50627 7.96608C8.4644 7.92919 8.43121 7.88349 8.40908 7.83226C8.38695 7.78103 8.37643 7.72554 8.37827 7.66976C8.38403 6.7232 8.37827 5.77664 8.37827 4.83008" fill="#2B7840"/>
<path d="M8.38037 4.83061C8.38037 5.77717 8.38037 6.72373 8.38037 7.67029C8.37853 7.72607 8.38905 7.78156 8.41118 7.83279C8.43331 7.88402 8.4665 7.92972 8.50838 7.96661C9.54347 8.99616 10.5762 10.0278 11.6066 11.0617C11.8421 11.2972 11.8748 11.5257 11.6981 11.6978C11.5215 11.87 11.302 11.8335 11.0741 11.6056C9.98954 10.5211 8.90432 9.43712 7.81846 8.35381C7.75472 8.29393 7.7046 8.22105 7.67147 8.14012C7.63835 8.05918 7.62299 7.97207 7.62645 7.88469C7.63115 5.91733 7.63115 3.95018 7.62645 1.98325C7.62645 1.71317 7.75062 1.55061 7.9663 1.53205C8.02185 1.52559 8.07814 1.53164 8.13105 1.54975C8.18397 1.56786 8.23216 1.59758 8.27211 1.63673C8.31205 1.67587 8.34274 1.72346 8.36191 1.776C8.38109 1.82853 8.38828 1.8847 8.38294 1.94037C8.38294 2.76149 8.38294 3.58261 8.38294 4.40373V4.83125" fill="white"/>
</g>
<defs>
<clipPath id="clip0_139_101">
<rect width="16" height="16" fill="white"/>
</clipPath>
</defs>
</svg>
