<svg width="16" height="11" viewBox="0 0 16 11" fill="none" xmlns="http://www.w3.org/2000/svg">
<g clip-path="url(#clip0_139_157)">
<path d="M16 9.92915C15.9387 10.2135 15.7999 10.4736 15.6 10.6787C15.3697 10.8935 15.0678 11.0076 14.7579 10.997C12.9928 10.995 11.2279 10.995 9.46312 10.997C6.71941 10.997 3.97571 10.9909 1.23201 11.0013C1.07057 11.0033 0.910359 10.9721 0.760696 10.9094C0.611033 10.8468 0.474911 10.7539 0.360255 10.6363C0.2456 10.5186 0.154702 10.3785 0.0928544 10.2242C0.0310068 10.0698 -0.0005548 9.90427 7.38003e-06 9.73717C7.38003e-06 9.60836 0.0373407 9.56665 0.160007 9.57095C0.392896 9.57892 0.626378 9.57095 0.877044 9.57095V9.37222C0.877044 6.62927 0.877044 3.88633 0.877044 1.14338C0.858616 0.989371 0.874236 0.833042 0.922726 0.686198C0.971215 0.539354 1.05131 0.405832 1.15695 0.295717C1.2626 0.185602 1.39103 0.101771 1.53256 0.0505558C1.67409 -0.000659636 1.82501 -0.0179211 1.97393 7.50474e-05C5.98776 7.50474e-05 10.0018 7.50474e-05 14.016 7.50474e-05C14.2466 -0.0254721 14.4786 0.0320917 14.6729 0.163052C14.8672 0.294013 15.012 0.490351 15.0827 0.718933C15.1147 0.84936 15.1292 0.983711 15.1259 1.11823C15.1283 3.86649 15.1283 6.61476 15.1259 9.36302V9.57217C15.36 9.57217 15.5822 9.57217 15.8039 9.57217C15.87 9.57767 15.9358 9.58791 16.0006 9.60284L16 9.92915ZM1.63438 9.04407H14.3627V1.17343H1.63438V9.04407ZM8.24179 0.576634C8.23843 0.508893 8.20992 0.445111 8.16223 0.398597C8.11453 0.352084 8.05132 0.326433 7.98579 0.326996C7.95317 0.328173 7.92111 0.336056 7.89147 0.350188C7.86182 0.364319 7.8352 0.384416 7.81314 0.409306C7.79107 0.434197 7.77402 0.463383 7.76296 0.495165C7.75191 0.526946 7.74708 0.560687 7.74875 0.594421C7.75217 0.659711 7.77928 0.721257 7.82466 0.766747C7.87003 0.812237 7.93033 0.838315 7.99349 0.839765C8.05959 0.837253 8.12223 0.808537 8.16844 0.75956C8.21466 0.710582 8.24092 0.64509 8.24179 0.576634Z" fill="#2B7840"/>
</g>
<defs>
<clipPath id="clip0_139_157">
<rect width="16" height="11" fill="white"/>
</clipPath>
</defs>
</svg>
