<svg id="Layer_1" data-name="Layer 1" xmlns="http://www.w3.org/2000/svg" viewBox="0 0 30 30"><defs><style>.cls-1{fill:none;stroke:#2b7840;stroke-miterlimit:10;stroke-width:0.5px;}.cls-2{fill:#2b7840;}</style></defs><title>ico</title><rect class="cls-1" x="4.62" y="3.93" width="18.38" height="22.07" rx="5.13" ry="5.13"/><circle class="cls-1" cx="13.81" cy="10.97" r="1.9"/><path class="cls-1" d="M13.74,14.58h.15a3.9,3.9,0,0,1,3.9,3.9v0a2,2,0,0,1-2,2h-4a2,2,0,0,1-2-2v0a3.9,3.9,0,0,1,3.9-3.9Z"/><path class="cls-2" d="M23,9.06h3.14a.51.51,0,0,1,.51.51v0a.51.51,0,0,1-.51.51H23a0,0,0,0,1,0,0v-1A0,0,0,0,1,23,9.06Z"/><path class="cls-2" d="M23,13.74h3.14a.51.51,0,0,1,.51.51v0a.51.51,0,0,1-.51.51H23a0,0,0,0,1,0,0v-1a0,0,0,0,1,0,0Z"/><path class="cls-2" d="M23,18.42h3.14a.51.51,0,0,1,.51.51v0a.51.51,0,0,1-.51.51H23a0,0,0,0,1,0,0v-1A0,0,0,0,1,23,18.42Z"/></svg>