<svg id="Layer_1" data-name="Layer 1" xmlns="http://www.w3.org/2000/svg" viewBox="0 0 30 30"><defs><style>.cls-1{fill:none;stroke:#2b7840;stroke-miterlimit:10;stroke-width:0.5px;}.cls-2{fill:#2b7840;}</style></defs><title>ico</title><path class="cls-1" d="M8.49,23.3a11.53,11.53,0,0,1-1.73-1.62"/><path class="cls-1" d="M24.22,9.33a10.74,10.74,0,0,1-9.3,16.1,11.16,11.16,0,0,1-2.1-.2"/><path class="cls-1" d="M20.15,5.32A10.84,10.84,0,0,1,22.39,7"/><circle class="cls-1" cx="14.43" cy="14.75" r="6.29"/><path class="cls-1" d="M16.55,4.09A11,11,0,0,0,14.92,4,10.73,10.73,0,0,0,5.71,20.21"/><polyline class="cls-1" points="14.07 1.56 16.55 3.9 14.07 6.02"/><polyline class="cls-1" points="14.92 27.66 12.41 25.36 14.86 23.21"/><path class="cls-2" d="M16.74,13.27l-1.27.37a1,1,0,0,0-1-.65.85.85,0,0,0-.53.14.42.42,0,0,0-.19.34.39.39,0,0,0,.23.36,5.66,5.66,0,0,0,1,.35,6.63,6.63,0,0,1,1.06.37,1.72,1.72,0,0,1,.62.51,1.19,1.19,0,0,1,.23.74A1.43,1.43,0,0,1,16.2,17a3,3,0,0,1-1.79.47A2.28,2.28,0,0,1,12,16l1.34-.29a1.05,1.05,0,0,0,1.11.8,1.16,1.16,0,0,0,.65-.16.48.48,0,0,0,.25-.41.43.43,0,0,0-.18-.34,2.18,2.18,0,0,0-.79-.33,7.47,7.47,0,0,1-1.19-.39,1.62,1.62,0,0,1-.65-.5,1.2,1.2,0,0,1-.26-.75,1.4,1.4,0,0,1,.61-1.16A2.52,2.52,0,0,1,14.47,12C15.68,12,16.44,12.45,16.74,13.27Z"/><rect class="cls-2" x="14.18" y="11.25" width="0.77" height="1.52"/><rect class="cls-2" x="14.18" y="16.74" width="0.77" height="1.52"/></svg>