<svg width="16" height="16" viewBox="0 0 16 16" fill="none" xmlns="http://www.w3.org/2000/svg">
<g clip-path="url(#clip0_139_136)">
<path d="M15.9999 7.49988V8.49988C15.991 8.54021 15.9795 8.5799 15.9737 8.62088C15.9193 8.99092 15.8854 9.36544 15.8092 9.73099C15.4668 11.2745 14.675 12.6821 13.5337 13.7759C12.3924 14.8697 10.9527 15.6008 9.39641 15.877C9.10009 15.925 8.80121 15.9595 8.50041 16.0005H7.50393C7.45849 15.9916 7.41369 15.98 7.36825 15.973C6.98809 15.916 6.60025 15.884 6.22841 15.8008C4.81662 15.4804 3.51818 14.7829 2.47149 13.7825C1.42479 12.7821 0.66908 11.5164 0.284899 10.1202C-0.0992816 8.724 -0.097532 7.24969 0.289961 5.85441C0.677455 4.45914 1.43617 3.19519 2.48523 2.19729C3.5343 1.19939 4.83439 0.504936 6.24694 0.18796C7.65949 -0.129016 9.13155 -0.0566394 10.5062 0.397376C11.8809 0.851391 13.1066 1.67003 14.0528 2.76603C14.999 3.86203 15.6301 5.19431 15.879 6.62088C15.9276 6.91281 15.9603 7.20667 15.9999 7.49988ZM10.2662 6.17466C10.2423 5.99984 10.2096 5.82633 10.1683 5.65481C10.0727 5.29298 9.88678 4.96138 9.62794 4.69116C9.36911 4.42094 9.04587 4.22095 8.68857 4.10999C8.6296 4.09979 8.57698 4.06684 8.54203 4.01824C8.50709 3.96963 8.4926 3.90925 8.50169 3.85007C8.51001 3.73611 8.50553 3.62088 8.50169 3.50628C8.50324 3.37448 8.45277 3.24739 8.36123 3.15258C8.26969 3.05777 8.14446 3.0029 8.01273 2.99988C7.946 2.99937 7.87982 3.01202 7.81797 3.0371C7.75613 3.06218 7.69982 3.0992 7.65228 3.14604C7.60474 3.19289 7.56688 3.24864 7.54088 3.31012C7.51488 3.3716 7.50124 3.43761 7.50073 3.50436C7.49689 3.60295 7.50073 3.70218 7.50073 3.80142C7.50073 4.04149 7.49497 4.04853 7.27225 4.12152C6.76758 4.29316 6.34029 4.63859 6.06662 5.09617C5.79296 5.55374 5.69071 6.09369 5.77813 6.61969C5.86555 7.14568 6.13695 7.6235 6.5439 7.96788C6.95086 8.31226 7.46689 8.50081 7.99993 8.49988C8.24598 8.49932 8.48672 8.57142 8.69199 8.70714C8.89725 8.84285 9.05791 9.03615 9.15382 9.26282C9.24973 9.48948 9.27663 9.73941 9.23115 9.9813C9.18568 10.2232 9.06984 10.4463 8.89816 10.6226C8.72648 10.7989 8.5066 10.9206 8.26607 10.9725C8.02554 11.0243 7.77507 11.004 7.54603 10.914C7.317 10.8241 7.11959 10.6686 6.97856 10.4669C6.83752 10.2652 6.75913 10.0263 6.75321 9.78029C6.75699 9.71105 6.7465 9.64177 6.72238 9.57676C6.69827 9.51175 6.66105 9.45239 6.61303 9.40238C6.56501 9.35237 6.50723 9.31277 6.44326 9.28603C6.3793 9.2593 6.31053 9.24602 6.24121 9.247C6.1704 9.24884 6.10079 9.26572 6.03699 9.29651C5.9732 9.3273 5.91667 9.3713 5.87116 9.4256C5.82565 9.4799 5.7922 9.54326 5.77303 9.61147C5.75385 9.67968 5.74939 9.75119 5.75993 9.82126C5.77585 10.0647 5.82383 10.3049 5.90265 10.5357C6.01485 10.8537 6.19996 11.1409 6.44314 11.3744C6.68632 11.6078 6.9808 11.7811 7.30297 11.8802C7.33493 11.8852 7.36556 11.8966 7.39307 11.9136C7.42058 11.9306 7.44442 11.9529 7.46319 11.9793C7.48197 12.0056 7.49529 12.0355 7.5024 12.067C7.50951 12.0986 7.51024 12.1313 7.50457 12.1631C7.498 12.2723 7.498 12.3818 7.50457 12.4909C7.50302 12.6227 7.55338 12.7497 7.64477 12.8446C7.73615 12.9395 7.86122 12.9946 7.99289 12.998C8.12451 12.9982 8.2511 12.9474 8.346 12.8561C8.44091 12.7649 8.49672 12.6404 8.50169 12.5088C8.51043 12.4049 8.51043 12.3004 8.50169 12.1964C8.48121 12.014 8.55801 11.9301 8.73081 11.8706C9.23602 11.6987 9.66353 11.3525 9.93675 10.8939C10.21 10.4354 10.311 9.89455 10.2219 9.36826C10.1327 8.84197 9.85905 8.36464 9.45002 8.02181C9.041 7.67898 8.5233 7.49304 7.98969 7.49732C7.74452 7.49461 7.50557 7.41979 7.30261 7.28218C7.09965 7.14458 6.94166 6.95028 6.84831 6.72348C6.75497 6.49669 6.7304 6.24743 6.77767 6.00677C6.82494 5.76611 6.94197 5.54468 7.11416 5.37008C7.28634 5.19548 7.50609 5.07542 7.74601 5.02487C7.98593 4.97432 8.23542 4.9955 8.46338 5.08578C8.69135 5.17607 8.88772 5.33146 9.02803 5.53259C9.16833 5.73373 9.24637 5.97172 9.25241 6.21691C9.24854 6.28617 9.25896 6.35549 9.28305 6.42054C9.30713 6.4856 9.34435 6.54499 9.39238 6.59502C9.44042 6.64506 9.49824 6.68466 9.56225 6.71135C9.62625 6.73805 9.69507 6.75127 9.76441 6.7502C9.83552 6.74607 9.9051 6.72781 9.96908 6.69648C10.0331 6.66516 10.0902 6.6214 10.137 6.56777C10.1839 6.51413 10.2197 6.45168 10.2422 6.38408C10.2647 6.31647 10.2735 6.24506 10.2681 6.17402" fill="#2B7840"/>
</g>
<defs>
<clipPath id="clip0_139_136">
<rect width="16" height="16" fill="white"/>
</clipPath>
</defs>
</svg>
