<svg id="Layer_1" data-name="Layer 1" xmlns="http://www.w3.org/2000/svg" viewBox="0 0 30 30"><defs><style>.cls-1{fill:none;}.cls-1,.cls-2{stroke:#2b7840;stroke-miterlimit:10;stroke-width:0.5px;}.cls-2{fill:#fff;}</style></defs><title>ico</title><rect class="cls-1" x="2.53" y="6.96" width="24.44" height="19.23" rx="0.78" ry="0.78"/><line class="cls-1" x1="2.53" y1="10.48" x2="26.98" y2="10.48"/><polyline class="cls-1" points="2.53 23.87 23.46 23.87 26.29 19.85 23.46 19.85 23.5 23.69"/><rect class="cls-1" x="8.25" y="12.31" width="13.32" height="9.7"/><circle class="cls-1" cx="14.91" cy="17.16" r="4.81"/><polygon class="cls-1" points="12.21 16.2 13.91 16.2 13.91 14.51 16.05 14.51 16.05 16.2 17.49 16.2 17.49 18.15 16.05 18.09 16.05 19.47 13.85 19.47 13.78 17.96 12.21 17.96 12.21 16.2"/><rect class="cls-2" x="4.44" y="5" width="1.93" height="3.72" rx="0.82" ry="0.82"/><rect class="cls-2" x="8.25" y="5" width="1.93" height="3.72" rx="0.82" ry="0.82"/><rect class="cls-2" x="12.21" y="5.1" width="1.93" height="3.72" rx="0.82" ry="0.82"/><rect class="cls-2" x="15.98" y="5" width="1.93" height="3.72" rx="0.82" ry="0.82"/><rect class="cls-2" x="19.72" y="5" width="1.93" height="3.72" rx="0.82" ry="0.82"/><rect class="cls-2" x="23.55" y="5" width="1.93" height="3.72" rx="0.82" ry="0.82"/></svg>